<svg width="20" height="20" viewBox="0 0 20 20" fill="none" xmlns="http://www.w3.org/2000/svg">
<path d="M14.9998 2.5C15.2039 2.50003 15.401 2.57496 15.5535 2.7106C15.706 2.84623 15.8035 3.03312 15.8273 3.23583L15.8332 3.33333V16.6667C15.8329 16.8791 15.7516 17.0834 15.6058 17.2378C15.46 17.3923 15.2607 17.4852 15.0487 17.4976C14.8366 17.5101 14.6279 17.4411 14.465 17.3048C14.3021 17.1685 14.1974 16.9751 14.1723 16.7642L14.1665 16.6667V12.5H13.3332C13.1291 12.5 12.9321 12.425 12.7795 12.2894C12.627 12.1538 12.5296 11.9669 12.5057 11.7642L12.4998 11.6667V6.66667C12.4998 4.825 13.7498 2.5 14.9998 2.5ZM9.99984 2.5C10.2039 2.50003 10.401 2.57496 10.5535 2.7106C10.706 2.84623 10.8035 3.03312 10.8273 3.23583L10.8332 3.33333V7.5C10.8331 8.23906 10.5875 8.95715 10.135 9.54148C9.68248 10.1258 9.04869 10.5433 8.33317 10.7283V16.6667C8.33294 16.8791 8.25161 17.0834 8.1058 17.2378C7.95999 17.3923 7.76071 17.4852 7.54868 17.4976C7.33664 17.5101 7.12785 17.4411 6.96498 17.3048C6.8021 17.1685 6.69742 16.9751 6.67234 16.7642L6.6665 16.6667V10.7283C5.97938 10.5507 5.36684 10.1585 4.91797 9.60876C4.4691 9.05903 4.20731 8.38043 4.17067 7.67167L4.1665 7.5V3.33333C4.16674 3.12093 4.24807 2.91664 4.39388 2.76219C4.53969 2.60775 4.73896 2.5148 4.951 2.50236C5.16303 2.48991 5.37182 2.5589 5.5347 2.69522C5.69758 2.83155 5.80225 3.02492 5.82734 3.23583L5.83317 3.33333V7.5C5.83318 7.79255 5.91019 8.07995 6.05647 8.33331C6.20275 8.58667 6.41315 8.79706 6.6665 8.94333V3.33333C6.66674 3.12093 6.74807 2.91664 6.89388 2.76219C7.03969 2.60775 7.23897 2.5148 7.451 2.50236C7.66303 2.48991 7.87182 2.5589 8.0347 2.69522C8.19758 2.83155 8.30225 3.02492 8.32734 3.23583L8.33317 3.33333L8.334 8.94333C8.56656 8.80891 8.76317 8.62027 8.90711 8.39349C9.05104 8.1667 9.13804 7.90848 9.16067 7.64083L9.1665 7.5V3.33333C9.1665 3.11232 9.2543 2.90036 9.41058 2.74408C9.56686 2.5878 9.77882 2.5 9.99984 2.5Z" fill="#EF8964"/>
</svg>
