<svg version="1.1" xmlns="http://www.w3.org/2000/svg" xmlns:xlink="http://www.w3.org/1999/xlink">
  <defs>
    <symbol id="apple-icon" viewBox="0 0 26 32">
      <path
        d="M17.239 3.716c0.12-0.037 0.232-0.097 0.329-0.177s0.176-0.18 0.234-0.291c0.058-0.112 0.093-0.234 0.102-0.36s-0.006-0.252-0.046-0.371c-0.040-0.119-0.103-0.229-0.187-0.324s-0.184-0.171-0.298-0.226c-0.113-0.055-0.237-0.086-0.362-0.092s-0.251 0.013-0.369 0.056c-1.766 0.587-2.865 2.037-3.512 3.59-0.087 0.21-0.167 0.423-0.239 0.638-0.353-0.668-0.804-1.279-1.338-1.813-0.724-0.725-1.588-1.295-2.539-1.673s-1.971-0.559-2.995-0.529c-1.092 0.030-1.963 0.904-1.993 1.993-0.030 1.024 0.15 2.043 0.529 2.995s0.948 1.816 1.673 2.539l0.058 0.056c-1.581 0.342-3.010 1.185-4.075 2.403s-1.71 2.746-1.839 4.359l-0.011 0.139c-0.248 3.101 0.412 6.206 1.901 8.937l0.678 1.239c0.019 0.032 0.038 0.064 0.060 0.094l1.882 2.639c0.427 0.597 0.978 1.095 1.617 1.457s1.348 0.582 2.080 0.642c0.732 0.060 1.468-0.039 2.157-0.292s1.315-0.653 1.834-1.172c0.080-0.080 0.174-0.143 0.278-0.186s0.216-0.065 0.329-0.065c0.113 0 0.224 0.022 0.329 0.065s0.199 0.106 0.278 0.186c0.519 0.519 1.145 0.919 1.834 1.172s1.425 0.352 2.157 0.292c0.732-0.061 1.441-0.28 2.080-0.642s1.19-0.86 1.617-1.457l1.882-2.637c0.022-0.031 0.042-0.063 0.060-0.096l0.676-1.239c1.489-2.731 2.15-5.837 1.901-8.937l-0.009-0.139c-0.083-1.039-0.382-2.050-0.876-2.968s-1.174-1.724-1.996-2.365-1.768-1.106-2.779-1.362c-1.011-0.257-2.064-0.301-3.092-0.129l-3.119 0.52c0.019-1.282 0.245-2.724 0.751-3.94 0.527-1.271 1.31-2.174 2.368-2.528h0.002zM7.357 15.010c-0.289 0.091-0.557 0.239-0.789 0.434s-0.422 0.435-0.561 0.704c-0.348 0.655-0.587 1.736-0.367 3.499 0.025 0.245-0.047 0.489-0.2 0.681s-0.375 0.317-0.619 0.347c-0.244 0.030-0.49-0.036-0.686-0.184s-0.326-0.368-0.362-0.611c-0.25-2.003-0.019-3.511 0.574-4.619 0.602-1.129 1.519-1.739 2.415-2.039 0.117-0.039 0.241-0.055 0.364-0.046s0.244 0.042 0.354 0.097c0.111 0.055 0.209 0.132 0.29 0.225s0.143 0.202 0.182 0.319c0.039 0.117 0.055 0.241 0.046 0.364s-0.042 0.244-0.097 0.354c-0.055 0.111-0.132 0.209-0.225 0.29s-0.202 0.143-0.319 0.182z">
      </path>
    </symbol>
    <symbol id="arrow-down-icon" viewBox="0 0 48 32">
      <path fill="none" stroke="#efede8" style="stroke: var(--color1, #efede8)" stroke-linejoin="round"
        stroke-linecap="round" stroke-miterlimit="4" stroke-width="8" d="M6 7l18 18 18-18"></path>
    </symbol>
    <symbol id="arrow-icon" viewBox="0 0 32 32">
      <path fill="none" stroke="#e6533c" style="stroke: var(--color2, #e6533c)" stroke-linejoin="round"
        stroke-linecap="round" stroke-miterlimit="4" stroke-width="2.6" d="M15 28l13-13M28 15l-13-13M28 15h-26"></path>
    </symbol>
    <symbol id="icon-next" viewBox="0 0 32 32">
      <path fill="none" stroke="#e6533c" style="stroke: var(--color1, #e6533c)" stroke-linejoin="round"
        stroke-linecap="round" stroke-miterlimit="4" stroke-width="2.4"
        d="M18.133 22.667l6.667-6.667M24.8 16l-6.667-6.667M24.8 16h-16"></path>
    </symbol>
    <symbol id="icon-back" viewBox="0 0 32 32">
      <path fill="none" stroke="#e6533c" style="stroke: var(--color1, #e6533c)" stroke-linejoin="round"
        stroke-linecap="round" stroke-miterlimit="4" stroke-width="2.4"
        d="M13.867 22.667l-6.667-6.667M7.2 16l6.667-6.667M7.2 16h16"></path>
    </symbol>
    <symbol id="arrow-left-icon" viewBox="0 0 19 32">
      <path d="M3.109 31.909l-3.017-3.017 12.358-12.358-12.358-12.358 3.017-3.017 15.375 15.375-15.375 15.375z"></path>
    </symbol>
    <symbol id="arrow-right-icon" viewBox="0 0 19 32">
      <path d="M16.091 1.158l3.017 3.017-12.358 12.358 12.358 12.358-3.017 3.017-15.375-15.375 15.375-15.375z"></path>
    </symbol>
    <symbol id="avocado-icon" viewBox="0 0 41 32">
      <path d="M0 0h40.577v32h-40.577v-32z"></path>
    </symbol>
    <symbol id="bubble-icon" viewBox="0 0 32 32">
      <path fill="#ef8964" style="fill: var(--color3, #ef8964)"
        d="M20.79 16.346c3.778 0 6.84-3.062 6.84-6.84s-3.062-6.84-6.84-6.84c-3.778 0-6.84 3.062-6.84 6.84s3.062 6.84 6.84 6.84z">
      </path>
      <path fill="#ef8964" style="fill: var(--color3, #ef8964)"
        d="M8.475 25.919c2.268 0 4.107-1.839 4.107-4.107s-1.839-4.107-4.107-4.107c-2.268 0-4.107 1.839-4.107 4.107s1.839 4.107 4.107 4.107z">
      </path>
      <path fill="#ef8964" style="fill: var(--color3, #ef8964)"
        d="M22.151 29.332c1.885 0 3.413-1.528 3.413-3.413s-1.528-3.413-3.413-3.413c-1.885 0-3.413 1.528-3.413 3.413s1.528 3.413 3.413 3.413z">
      </path>
    </symbol>
    <symbol id="burger-menu-icon" viewBox="0 0 46 32">
      <path fill="none" stroke="#e6533c" style="stroke: var(--color2, #e6533c)" stroke-linejoin="round"
        stroke-linecap="round" stroke-miterlimit="4" stroke-width="4.5714"
        d="M2.286 16h27.429M2.286 2.286h41.143M2.286 29.714h41.143"></path>
    </symbol>
    <symbol id="calendar-icon" viewBox="0 0 32 32">
      <path fill="none" stroke="#ef8964" style="stroke: var(--color3, #ef8964)" stroke-linejoin="round"
        stroke-linecap="round" stroke-miterlimit="4" stroke-width="2.88"
        d="M25.333 5.333h-18.667c-1.473 0-2.667 1.194-2.667 2.667v18.667c0 1.473 1.194 2.667 2.667 2.667h18.667c1.473 0 2.667-1.194 2.667-2.667v-18.667c0-1.473-1.194-2.667-2.667-2.667z">
      </path>
      <path fill="none" stroke="#ef8964" style="stroke: var(--color3, #ef8964)" stroke-linejoin="round"
        stroke-linecap="round" stroke-miterlimit="4" stroke-width="2.88" d="M21.331 2.667v5.333"></path>
      <path fill="none" stroke="#ef8964" style="stroke: var(--color3, #ef8964)" stroke-linejoin="round"
        stroke-linecap="round" stroke-miterlimit="4" stroke-width="2.88" d="M10.669 2.667v5.333"></path>
      <path fill="none" stroke="#ef8964" style="stroke: var(--color3, #ef8964)" stroke-linejoin="round"
        stroke-linecap="round" stroke-miterlimit="4" stroke-width="2.88" d="M4 13.333h24"></path>
    </symbol>
    <symbol id="check-mark-icon" viewBox="0 0 32 32">
      <path fill="#e6533c" style="fill: var(--color2, #e6533c)"
        d="M11.231 0.57l4.024 1.164c0.452 0.131 0.932 0.132 1.384 0.003l4.175-1.189c1.127-0.321 2.326 0.181 2.889 1.208l2.18 3.982c0.224 0.409 0.558 0.748 0.964 0.978l3.39 1.92c1.028 0.582 1.511 1.803 1.159 2.931l-1.172 3.759c-0.151 0.484-0.152 1.002-0.002 1.487l1.191 3.86c0.344 1.114-0.125 2.318-1.132 2.906l-3.859 2.256c-0.404 0.236-0.734 0.581-0.953 0.995l-1.797 3.404c-0.545 1.033-1.731 1.553-2.86 1.255l-4.22-1.114c-0.423-0.112-0.868-0.111-1.291 0.002l-4.057 1.088c-1.155 0.31-2.369-0.239-2.899-1.311l-1.788-3.612c-0.236-0.476-0.617-0.866-1.088-1.112l-3.674-1.918c-1.048-0.547-1.572-1.752-1.258-2.893l1.075-3.896c0.118-0.429 0.121-0.882 0.006-1.313l-1.118-4.206c-0.295-1.111 0.201-2.28 1.206-2.838l3.831-2.131c0.429-0.239 0.778-0.598 1.005-1.033l1.765-3.385c0.552-1.059 1.775-1.582 2.922-1.25z">
      </path>
      <path fill="none" stroke="#efede8" style="stroke: var(--color1, #efede8)" stroke-linejoin="round"
        stroke-linecap="round" stroke-miterlimit="4" stroke-width="2" d="M16.333 9.333v13.333"></path>
      <path fill="none" stroke="#efede8" style="stroke: var(--color1, #efede8)" stroke-linejoin="round"
        stroke-linecap="round" stroke-miterlimit="4" stroke-width="2" d="M9.333 16h13.333"></path>
    </symbol>
    <symbol id="close-icon" viewBox="0 0 18 18">
      <!-- <symbol id="close-icon" viewBox="3 3 12 12"> -->
      <!-- <path d="M1.5 1.5L12.5 12.5" stroke="#EFEDE8" stroke-width="2" stroke-linecap="round" stroke-linejoin="round"/> -->
      <!-- <path  fill="none" stroke="#efede8"  d="m13.5 4.5-9 9M4.5 4.5l9 9" stroke="none" stroke-width="2" stroke-linecap="round" stroke-linejoin="round"/> -->
      <path d="M16.5 5.5L5.5 16.5" stroke="#EFEDE8" stroke-width="2" stroke-linecap="round" stroke-linejoin="round" />
      <path d="M5.5 5.5L16.5 16.5" stroke="#EFEDE8" stroke-width="2" stroke-linecap="round" stroke-linejoin="round" />
    </symbol>
    <symbol id="dumbbell-icon" viewBox="0 0 32 32">
      <path fill="#ef8964" style="fill: var(--color3, #ef8964)"
        d="M5.2 8h-2.4c-0.665 0-1.2 0.535-1.2 1.2v5.2h-1.2c-0.22 0-0.4 0.18-0.4 0.4v2.4c0 0.22 0.18 0.4 0.4 0.4h1.2v5.2c0 0.665 0.535 1.2 1.2 1.2h2.4c0.665 0 1.2-0.535 1.2-1.2v-13.6c0-0.665-0.535-1.2-1.2-1.2zM31.6 14.4h-1.2v-5.2c0-0.665-0.535-1.2-1.2-1.2h-2.4c-0.665 0-1.2 0.535-1.2 1.2v13.6c0 0.665 0.535 1.2 1.2 1.2h2.4c0.665 0 1.2-0.535 1.2-1.2v-5.2h1.2c0.22 0 0.4-0.18 0.4-0.4v-2.4c0-0.22-0.18-0.4-0.4-0.4zM22.8 4.8h-2.4c-0.665 0-1.2 0.535-1.2 1.2v8.4h-6.4v-8.4c0-0.665-0.535-1.2-1.2-1.2h-2.4c-0.665 0-1.2 0.535-1.2 1.2v20c0 0.665 0.535 1.2 1.2 1.2h2.4c0.665 0 1.2-0.535 1.2-1.2v-8.4h6.4v8.4c0 0.665 0.535 1.2 1.2 1.2h2.4c0.665 0 1.2-0.535 1.2-1.2v-20c0-0.665-0.535-1.2-1.2-1.2z">
      </path>
    </symbol>
    <symbol id="exclamation-mark-icon" viewBox="0 0 32 32">
      <path fill="#efa082" style="fill: var(--color4, #efa082)"
        d="M32 16c0 8.837-7.163 16-16 16s-16-7.163-16-16c0-8.837 7.163-16 16-16s16 7.163 16 16z"></path>
      <path fill="none" stroke="#efede8" style="stroke: var(--color1, #efede8)" stroke-linejoin="round"
        stroke-linecap="round" stroke-miterlimit="4" stroke-width="2.6667" d="M16 25.333v0.013M16 20v-13.333"></path>
    </symbol>
    <symbol id="fire-icon" viewBox="0 0 26 32">
      <path fill="#ef8964" style="fill: var(--color3, #ef8964)"
        d="M12.798 22.291c-0.946 0.72-2.898 2.5-2.898 4.925 0 1.601 1.3 2.904 2.897 2.904s2.897-1.303 2.897-2.904c0-2.297-1.954-4.161-2.895-4.925z">
      </path>
      <path fill="#ef8964" style="fill: var(--color3, #ef8964)"
        d="M19.59 5.57c-0.351-0.397-0.958-0.421-1.34-0.064l-4.412 4.117v-8.623c0-0.722-0.87-1.261-1.522-0.867-0.123 0.075-3.055 1.865-6.017 5.116-3.602 3.953-6.055 8.766-6.055 14.164 0 6.941 5.633 12.587 12.557 12.587-2.631 0-4.772-2.146-4.772-4.784 0-4.262 4.138-6.786 4.314-6.891 0.309-0.184 0.695-0.176 0.996 0.022 0.173 0.114 4.234 2.838 4.234 6.869 0 2.638-2.141 4.784-4.772 4.784 6.924 0 12.557-5.647 12.557-12.587 0-5.241-2.313-9.938-5.767-13.843z">
      </path>
    </symbol>
    <symbol id="fork-and-knife-icon" viewBox="0 0 24 32">
      <path fill="#ef8964" style="fill: var(--color3, #ef8964)"
        d="M21.995 1c0.408 0 0.802 0.15 1.107 0.421s0.5 0.645 0.548 1.050l0.012 0.195v26.667c-0 0.425-0.163 0.833-0.455 1.142s-0.69 0.495-1.114 0.52c-0.424 0.025-0.842-0.113-1.167-0.386s-0.535-0.659-0.585-1.081l-0.012-0.195v-8.333h-1.667c-0.408 0-0.802-0.15-1.107-0.421s-0.5-0.645-0.548-1.050l-0.012-0.195v-10c0-3.683 2.5-8.333 5-8.333zM11.995 1c0.408 0 0.802 0.15 1.107 0.421s0.5 0.645 0.548 1.050l0.012 0.195v8.333c-0 1.478-0.491 2.914-1.396 4.083s-2.173 2.004-3.604 2.374v11.877c-0 0.425-0.163 0.833-0.455 1.142s-0.69 0.495-1.114 0.52c-0.424 0.025-0.842-0.113-1.167-0.386s-0.535-0.659-0.585-1.081l-0.012-0.195v-11.877c-1.374-0.355-2.599-1.14-3.497-2.239s-1.421-2.457-1.495-3.874l-0.008-0.343v-8.333c0-0.425 0.163-0.833 0.455-1.142s0.69-0.495 1.114-0.52c0.424-0.025 0.842 0.113 1.167 0.386s0.535 0.659 0.585 1.081l0.012 0.195v8.333c0 0.585 0.154 1.16 0.447 1.667s0.713 0.928 1.22 1.22v-11.22c0-0.425 0.163-0.833 0.455-1.142s0.69-0.495 1.114-0.52c0.424-0.025 0.842 0.113 1.167 0.386s0.535 0.659 0.585 1.081l0.012 0.195 0.002 11.22c0.465-0.269 0.858-0.646 1.146-1.1s0.462-0.97 0.507-1.505l0.012-0.282v-8.333c0-0.442 0.176-0.866 0.488-1.179s0.736-0.488 1.179-0.488z">
      </path>
    </symbol>
    <symbol id="gantelya" viewBox="0 0 83 32">
      <path
        d="M80.941 13.714c1.040 0 1.882 0.843 1.882 1.882v0.807c0 1.040-0.843 1.882-1.882 1.882h-2.151c-1.039 0-1.882 0.843-1.882 1.882v5.378c0 1.040-0.843 1.882-1.882 1.882h-2.151c-1.040 0-1.882 0.843-1.882 1.882v0.807c0 1.040-0.843 1.882-1.882 1.882h-5.109c-1.040 0-1.882-0.843-1.882-1.882v-9.95c0-1.040-0.843-1.882-1.882-1.882h-37.647c-1.040 0-1.882 0.843-1.882 1.882v9.95c0 1.040-0.843 1.882-1.882 1.882h-5.109c-1.040 0-1.882-0.843-1.882-1.882v-0.807c0-1.040-0.843-1.882-1.882-1.882h-2.151c-1.040 0-1.882-0.843-1.882-1.882v-5.378c0-1.040-0.843-1.882-1.882-1.882h-2.151c-1.040 0-1.882-0.843-1.882-1.882v-0.807c0-1.040 0.843-1.882 1.882-1.882h2.151c1.040 0 1.882-0.843 1.882-1.882v-5.378c0-1.040 0.843-1.882 1.882-1.882h2.151c1.040 0 1.882-0.843 1.882-1.882v-0.807c0-1.040 0.843-1.882 1.882-1.882h5.109c1.040 0 1.882 0.843 1.882 1.882v9.95c0 1.040 0.843 1.882 1.882 1.882h37.647c1.040 0 1.882-0.843 1.882-1.882v-9.95c0-1.040 0.843-1.882 1.882-1.882h5.109c1.040 0 1.882 0.843 1.882 1.882v0.807c0 1.040 0.843 1.882 1.882 1.882h2.151c1.040 0 1.882 0.843 1.882 1.882v5.378c0 1.040 0.843 1.882 1.882 1.882h2.151z">
      </path>
    </symbol>
    <symbol id="log-out-icon" viewBox="0 0 32 32">
      <path fill="none" stroke-linejoin="round" stroke-linecap="round" stroke-miterlimit="4" stroke-width="2.4"
        d="M12 4h-1.6c-2.24 0-3.36 0-4.216 0.436-0.753 0.383-1.365 0.995-1.748 1.748-0.436 0.856-0.436 1.976-0.436 4.216v11.2c0 2.24 0 3.36 0.436 4.216 0.383 0.753 0.995 1.364 1.748 1.748 0.856 0.436 1.976 0.436 4.216 0.436h1.6">
      </path>
      <path fill="none" stroke-linejoin="round" stroke-linecap="round" stroke-miterlimit="4" stroke-width="2.4"
        d="M21.333 22.667l6.667-6.667M28 16l-6.667-6.667M28 16h-16"></path>
    </symbol>
    <symbol id="pause-square-icon" viewBox="0 0 9 10">
      <path d="M1.16602 9V1M7.83268 9V1" stroke="#EFEDE8" stroke-width="1.3" stroke-linecap="round"
        stroke-linejoin="round" />
    </symbol>
    <symbol id="play-symbol-icon" viewBox="0 0 24 32">
      <path fill="#efede8" style="fill: var(--color1, #efede8)" d="M24 16l-24 13.857v-27.713l24 13.856z"></path>
    </symbol>
    <symbol id="power-pulse" viewBox="0 0 202 32">
      <path fill="#efede8" style="fill: var(--color1, #efede8)"
        d="M0 30.266v-27.099h10.14c1.541 0 2.934 0.368 4.178 1.103 1.257 0.736 2.251 1.723 2.981 2.962s1.095 2.6 1.095 4.084c0 1.523-0.379 2.903-1.136 4.142-0.744 1.226-1.744 2.207-3.002 2.942-1.257 0.723-2.63 1.084-4.117 1.084h-5.192v10.782h-4.948zM4.948 14.761h4.665c0.703 0 1.345-0.168 1.927-0.503s1.041-0.787 1.379-1.355c0.352-0.568 0.527-1.2 0.527-1.897 0-0.71-0.176-1.349-0.527-1.916-0.338-0.568-0.798-1.019-1.379-1.355s-1.224-0.503-1.927-0.503h-4.665v7.53z">
      </path>
      <path fill="#efede8" style="fill: var(--color1, #efede8)"
        d="M29.64 30.769c-1.866 0-3.569-0.458-5.111-1.374-1.528-0.916-2.751-2.142-3.671-3.678-0.906-1.549-1.359-3.258-1.359-5.13 0-1.419 0.264-2.742 0.791-3.968 0.527-1.239 1.251-2.323 2.17-3.252 0.933-0.942 2.015-1.678 3.245-2.207s2.542-0.794 3.934-0.794c1.866 0 3.563 0.458 5.090 1.374 1.541 0.916 2.765 2.149 3.671 3.697 0.919 1.549 1.379 3.265 1.379 5.149 0 1.407-0.264 2.723-0.791 3.949s-1.257 2.31-2.19 3.252c-0.919 0.929-1.994 1.658-3.225 2.187-1.217 0.529-2.528 0.794-3.935 0.794zM29.64 26.046c0.987 0 1.873-0.252 2.657-0.755s1.399-1.168 1.846-1.994c0.46-0.826 0.689-1.729 0.689-2.71 0-1.007-0.237-1.923-0.71-2.749-0.46-0.839-1.088-1.503-1.886-1.994-0.784-0.503-1.649-0.755-2.596-0.755-0.973 0-1.852 0.252-2.636 0.755s-1.406 1.174-1.866 2.013c-0.46 0.839-0.69 1.749-0.69 2.729 0 1.019 0.237 1.942 0.71 2.768s1.102 1.484 1.886 1.974c0.798 0.478 1.663 0.716 2.596 0.716z">
      </path>
      <path fill="#efede8" style="fill: var(--color1, #efede8)"
        d="M52.452 30.266h-4.908l-6.774-19.357h4.847l4.401 12.524 4.381-12.524h4.888l4.381 12.524 4.401-12.524h4.847l-6.774 19.357h-4.908l-4.401-12.582-4.381 12.582z">
      </path>
      <path fill="#efede8" style="fill: var(--color1, #efede8)"
        d="M84.064 30.769c-1.866 0-3.569-0.458-5.111-1.374-1.528-0.916-2.752-2.149-3.671-3.697-0.906-1.549-1.359-3.258-1.359-5.13 0-1.407 0.264-2.723 0.791-3.949 0.527-1.239 1.251-2.323 2.17-3.252 0.933-0.942 2.015-1.678 3.245-2.207s2.542-0.794 3.935-0.794c1.582 0 3.029 0.323 4.34 0.968 1.325 0.632 2.447 1.503 3.367 2.613s1.589 2.374 2.008 3.794c0.419 1.419 0.514 2.904 0.284 4.452h-14.825c0.189 0.723 0.5 1.374 0.933 1.955 0.433 0.568 0.98 1.026 1.643 1.374 0.662 0.335 1.413 0.51 2.251 0.523 0.865 0.013 1.649-0.181 2.353-0.581 0.717-0.413 1.311-0.968 1.785-1.665l5.050 1.123c-0.825 1.716-2.055 3.123-3.691 4.22-1.636 1.084-3.468 1.626-5.496 1.626zM79.075 18.652h9.978c-0.149-0.774-0.466-1.471-0.953-2.091-0.473-0.632-1.061-1.136-1.764-1.51s-1.46-0.561-2.272-0.561-1.562 0.187-2.251 0.561c-0.689 0.361-1.278 0.858-1.764 1.49-0.473 0.619-0.798 1.323-0.974 2.11z">
      </path>
      <path fill="#efede8" style="fill: var(--color1, #efede8)"
        d="M97.383 30.266l-0.020-19.357h4.948l0.020 1.723c0.689-0.697 1.514-1.245 2.474-1.645 0.96-0.413 1.994-0.619 3.103-0.619 0.744 0 1.487 0.103 2.231 0.31l-1.947 4.762c-0.514-0.194-1.027-0.29-1.541-0.29-0.798 0-1.528 0.187-2.19 0.561-0.649 0.361-1.169 0.858-1.562 1.491-0.379 0.619-0.568 1.31-0.568 2.071v10.995h-4.948z">
      </path>
      <path fill="#efede8" style="fill: var(--color1, #efede8)"
        d="M112.415 30.266v-27.099h10.14c1.541 0 2.934 0.368 4.178 1.103 1.257 0.736 2.251 1.723 2.981 2.962s1.095 2.6 1.095 4.084c0 1.523-0.379 2.903-1.136 4.142-0.744 1.226-1.744 2.207-3.002 2.942-1.257 0.723-2.63 1.084-4.117 1.084h-5.192v10.782h-4.948zM117.363 14.761h4.665c0.703 0 1.345-0.168 1.927-0.503s1.041-0.787 1.379-1.355c0.352-0.568 0.527-1.2 0.527-1.897 0-0.71-0.176-1.349-0.527-1.916-0.338-0.568-0.798-1.019-1.379-1.355s-1.224-0.503-1.927-0.503h-4.665v7.53z">
      </path>
      <path fill="#efede8" style="fill: var(--color1, #efede8)"
        d="M132.914 23.104v-12.195h4.948v10.956c0 0.761 0.196 1.458 0.588 2.091 0.392 0.619 0.913 1.116 1.562 1.491 0.663 0.361 1.386 0.542 2.17 0.542 0.811 0 1.541-0.181 2.19-0.542 0.649-0.374 1.169-0.871 1.562-1.491 0.392-0.632 0.588-1.329 0.588-2.091v-10.956h4.948l0.020 19.357h-4.948l-0.020-1.761c-0.703 0.697-1.535 1.252-2.495 1.665-0.96 0.4-1.988 0.6-3.083 0.6-1.474 0-2.819-0.342-4.036-1.026-1.217-0.697-2.19-1.619-2.92-2.768-0.717-1.161-1.075-2.452-1.075-3.871z">
      </path>
      <path fill="#efede8" style="fill: var(--color1, #efede8)" d="M155.669 30.266v-29.035h4.948v29.035h-4.948z"></path>
      <path fill="#efede8" style="fill: var(--color1, #efede8)"
        d="M171.475 30.614c-1.055-0.064-2.075-0.265-3.062-0.6-0.973-0.348-1.839-0.819-2.596-1.413s-1.339-1.303-1.744-2.129l4.178-1.703c0.162 0.258 0.426 0.535 0.791 0.832 0.365 0.284 0.798 0.523 1.298 0.716 0.514 0.194 1.075 0.29 1.683 0.29 0.514 0 1-0.064 1.46-0.193 0.473-0.142 0.852-0.355 1.136-0.639 0.297-0.284 0.446-0.652 0.446-1.104 0-0.477-0.176-0.845-0.527-1.103-0.338-0.271-0.771-0.471-1.298-0.6-0.514-0.142-1.014-0.271-1.501-0.387-1.284-0.245-2.481-0.626-3.59-1.142-1.095-0.516-1.981-1.181-2.657-1.994-0.662-0.826-0.994-1.82-0.994-2.981 0-1.278 0.351-2.381 1.055-3.31 0.717-0.929 1.643-1.645 2.778-2.149 1.149-0.503 2.386-0.755 3.711-0.755 1.609 0 3.083 0.323 4.421 0.968 1.352 0.632 2.42 1.529 3.204 2.691l-3.914 2.207c-0.189-0.31-0.453-0.594-0.791-0.852-0.338-0.271-0.723-0.49-1.156-0.658-0.433-0.181-0.886-0.284-1.359-0.31-0.608-0.026-1.163 0.026-1.663 0.155s-0.906 0.348-1.217 0.658c-0.298 0.31-0.446 0.723-0.446 1.239 0 0.49 0.203 0.858 0.608 1.103 0.406 0.232 0.892 0.413 1.46 0.542 0.581 0.129 1.136 0.271 1.663 0.426 1.19 0.374 2.305 0.832 3.346 1.374 1.055 0.542 1.9 1.207 2.535 1.994s0.94 1.729 0.912 2.826c0 1.252-0.392 2.349-1.176 3.291-0.784 0.929-1.798 1.639-3.042 2.129-1.23 0.49-2.548 0.684-3.955 0.581z">
      </path>
      <path fill="#efede8" style="fill: var(--color1, #efede8)"
        d="M191.726 30.769c-1.866 0-3.569-0.458-5.111-1.374-1.528-0.916-2.751-2.149-3.671-3.697-0.906-1.549-1.359-3.258-1.359-5.13 0-1.407 0.264-2.723 0.791-3.949 0.527-1.239 1.251-2.323 2.17-3.252 0.933-0.942 2.015-1.678 3.245-2.207s2.542-0.794 3.935-0.794c1.582 0 3.028 0.323 4.34 0.968 1.325 0.632 2.447 1.503 3.367 2.613s1.589 2.374 2.008 3.794c0.419 1.419 0.514 2.904 0.284 4.452h-14.825c0.189 0.723 0.5 1.374 0.933 1.955 0.433 0.568 0.98 1.026 1.643 1.374 0.662 0.335 1.413 0.51 2.251 0.523 0.865 0.013 1.649-0.181 2.352-0.581 0.717-0.413 1.311-0.968 1.785-1.665l5.050 1.123c-0.825 1.716-2.055 3.123-3.691 4.22-1.636 1.084-3.468 1.626-5.496 1.626zM186.737 18.652h9.978c-0.149-0.774-0.466-1.471-0.953-2.091-0.473-0.632-1.061-1.136-1.764-1.51s-1.46-0.561-2.271-0.561c-0.811 0-1.562 0.187-2.251 0.561-0.69 0.361-1.278 0.858-1.764 1.49-0.473 0.619-0.798 1.323-0.974 2.11z">
      </path>
    </symbol>
    <symbol id="run-icon" viewBox="0 0 32 32">
      <path
        d="M25.098 11.634c-0.279-0.334-0.777-0.378-1.111-0.099l-2.188 1.838-1.006-2.493c-0.036-0.094-0.090-0.172-0.153-0.241-0.206-0.457-0.563-0.85-1.055-1.078-0.214-0.097-0.434-0.149-0.655-0.174-0.049-0.025-0.093-0.059-0.148-0.076l-3.85-1.073c-0.216-0.059-0.433-0.021-0.611 0.083-0.211 0.072-0.393 0.225-0.479 0.448l-1.45 3.728c-0.157 0.405 0.044 0.863 0.451 1.022 0.404 0.157 0.863-0.045 1.021-0.452l1.225-3.148 1.754 0.488c-0.043 0.069-0.089 0.134-0.124 0.208l-2.248 4.873c-0.032 0.072-0.050 0.144-0.073 0.218l-2.732 4.58-4.572 1.529c-0.518 0.387-0.627 1.116-0.245 1.633 0.385 0.519 1.116 0.628 1.632 0.246l4.679-1.612c0.143-0.104 0.247-0.24 0.326-0.387 0.059-0.062 0.126-0.112 0.171-0.189l1.629-2.731 2.891 2.464-3.094 3.487c-0.426 0.481-0.383 1.221 0.099 1.646 0.482 0.429 1.22 0.383 1.648-0.099l3.861-4.349c0.12-0.134 0.192-0.289 0.24-0.451 0.029-0.088 0.029-0.179 0.036-0.27 0-0.046 0.017-0.088 0.014-0.131-0.010-0.319-0.14-0.628-0.401-0.849l-2.661-2.269c0.192-0.183 0.355-0.4 0.473-0.655l1.724-3.733 0.552 1.471c0.023 0.131 0.067 0.259 0.159 0.366 0.083 0.099 0.189 0.165 0.303 0.211 0.012 0.006 0.025 0.007 0.039 0.010 0.072 0.025 0.144 0.050 0.219 0.053 0.089 0.008 0.179-0.003 0.27-0.029 0.002-0.001 0.003-0.001 0.003-0.001 0.024-0.006 0.049-0.001 0.073-0.012 0.128-0.048 0.226-0.131 0.311-0.226l3.14-2.665c0.334-0.281 0.193-0.777-0.088-1.111z">
      </path>
      <path
        d="M21.128 9.735c1.215 0 2.201-0.985 2.201-2.201s-0.985-2.201-2.201-2.201c-1.215 0-2.201 0.985-2.201 2.201s0.985 2.201 2.201 2.201z">
      </path>
    </symbol>
    <symbol id="search-icon" viewBox="0 0 32 32">
      <path fill="none" stroke="#efede8" style="stroke: var(--color1, #efede8)" stroke-linejoin="round"
        stroke-linecap="round" stroke-miterlimit="4" stroke-width="2.6667"
        d="M14.667 25.333c5.891 0 10.667-4.776 10.667-10.667s-4.776-10.667-10.667-10.667c-5.891 0-10.667 4.776-10.667 10.667s4.776 10.667 10.667 10.667z">
      </path>
      <path fill="none" stroke="#efede8" style="stroke: var(--color1, #efede8)" stroke-linejoin="round"
        stroke-linecap="round" stroke-miterlimit="4" stroke-width="2.6667" d="M28.001 28l-5.8-5.8"></path>
    </symbol>
    <symbol id="settings-icon" viewBox="0 0 32 32">
      <path fill="none" stroke-linejoin="round" stroke-linecap="round" stroke-miterlimit="4" stroke-width="2.2857"
        d="M16 20c2.209 0 4-1.791 4-4s-1.791-4-4-4c-2.209 0-4 1.791-4 4s1.791 4 4 4z"></path>
      <path fill="none" stroke-linejoin="round" stroke-linecap="round" stroke-miterlimit="4" stroke-width="2.2857"
        d="M24.97 19.636c-0.161 0.366-0.209 0.771-0.138 1.164s0.259 0.756 0.538 1.042l0.073 0.073c0.225 0.225 0.404 0.492 0.526 0.787s0.185 0.61 0.185 0.928c0 0.319-0.063 0.634-0.185 0.928s-0.301 0.562-0.526 0.787c-0.225 0.225-0.493 0.404-0.787 0.526s-0.61 0.185-0.928 0.185c-0.319 0-0.634-0.063-0.928-0.185s-0.562-0.301-0.787-0.526l-0.073-0.073c-0.286-0.279-0.648-0.467-1.042-0.538s-0.799-0.023-1.164 0.138c-0.358 0.154-0.664 0.409-0.88 0.734s-0.331 0.706-0.332 1.096v0.206c0 0.643-0.255 1.26-0.71 1.714s-1.071 0.71-1.714 0.71c-0.643 0-1.26-0.255-1.714-0.71s-0.71-1.071-0.71-1.714v-0.109c-0.009-0.401-0.139-0.79-0.373-1.117s-0.56-0.575-0.936-0.714c-0.366-0.161-0.771-0.209-1.164-0.138s-0.756 0.259-1.042 0.538l-0.073 0.073c-0.225 0.226-0.492 0.404-0.787 0.526s-0.61 0.185-0.928 0.185-0.634-0.063-0.928-0.185c-0.294-0.122-0.562-0.301-0.787-0.526s-0.404-0.492-0.526-0.787-0.185-0.61-0.185-0.928c0-0.319 0.063-0.634 0.185-0.928s0.301-0.562 0.526-0.787l0.073-0.073c0.279-0.286 0.467-0.649 0.538-1.042s0.023-0.799-0.138-1.164c-0.154-0.358-0.409-0.664-0.734-0.88s-0.706-0.331-1.096-0.332h-0.206c-0.643 0-1.26-0.255-1.714-0.71s-0.71-1.071-0.71-1.714c0-0.643 0.255-1.26 0.71-1.714s1.071-0.71 1.714-0.71h0.109c0.401-0.009 0.79-0.139 1.117-0.373s0.575-0.56 0.714-0.936c0.161-0.366 0.209-0.771 0.138-1.164s-0.259-0.756-0.538-1.042l-0.073-0.073c-0.225-0.225-0.404-0.492-0.526-0.787s-0.185-0.61-0.185-0.928c0-0.319 0.063-0.634 0.185-0.928s0.301-0.562 0.526-0.787c0.225-0.225 0.492-0.404 0.787-0.526s0.61-0.185 0.928-0.185c0.319 0 0.634 0.063 0.928 0.185s0.562 0.301 0.787 0.526l0.073 0.073c0.286 0.279 0.649 0.467 1.042 0.538s0.799 0.023 1.164-0.138h0.097c0.358-0.154 0.664-0.409 0.88-0.734s0.331-0.706 0.332-1.096v-0.206c0-0.643 0.255-1.26 0.71-1.714s1.071-0.71 1.714-0.71c0.643 0 1.26 0.255 1.714 0.71s0.71 1.071 0.71 1.714v0.109c0.002 0.39 0.117 0.771 0.332 1.096s0.521 0.58 0.88 0.734c0.366 0.161 0.771 0.209 1.164 0.138s0.756-0.259 1.042-0.538l0.073-0.073c0.225-0.225 0.493-0.404 0.787-0.526s0.61-0.185 0.928-0.185c0.319 0 0.634 0.063 0.928 0.185s0.562 0.301 0.787 0.526c0.225 0.225 0.404 0.492 0.526 0.787s0.185 0.61 0.185 0.928-0.063 0.634-0.185 0.928c-0.122 0.294-0.301 0.562-0.526 0.787l-0.073 0.073c-0.279 0.286-0.467 0.649-0.538 1.042s-0.023 0.799 0.138 1.164v0.097c0.154 0.358 0.409 0.664 0.734 0.88s0.706 0.331 1.096 0.332h0.206c0.643 0 1.26 0.255 1.714 0.71s0.71 1.071 0.71 1.714c0 0.643-0.255 1.26-0.71 1.714s-1.071 0.71-1.714 0.71h-0.109c-0.39 0.002-0.771 0.117-1.096 0.333s-0.58 0.521-0.734 0.88z">
      </path>
    </symbol>
    <symbol id="trash-icon" viewBox="0 0 32 32">
      <path fill="none" stroke="#ef8964" style="stroke: var(--color3, #ef8964)" stroke-linejoin="round"
        stroke-linecap="round" stroke-miterlimit="4" stroke-width="2.4" d="M12 4h8M13.333 14v6.667M18.667 14v6.667">
      </path>
      <path fill="none" stroke="#ef8964" style="stroke: var(--color3, #ef8964)" stroke-linejoin="round"
        stroke-linecap="round" stroke-miterlimit="4" stroke-width="2.4"
        d="M4 8h24M25.333 8l-0.935 14.026c-0.14 2.104-0.21 3.156-0.665 3.954-0.4 0.702-1.004 1.267-1.731 1.62-0.826 0.4-1.881 0.4-3.99 0.4h-4.025c-2.109 0-3.163 0-3.99-0.4-0.727-0.352-1.331-0.917-1.731-1.62-0.455-0.798-0.525-1.85-0.665-3.954l-0.935-14.026">
      </path>
    </symbol>
    <symbol id="user-icon" viewBox="0 0 32 32">
      <path fill="#efede8" style="fill: var(--color1, #efede8)" opacity="0.1"
        d="M16 1.067c1.98 0 3.879 0.787 5.28 2.187s2.187 3.299 2.187 5.28-0.787 3.879-2.187 5.28c-1.4 1.4-3.299 2.187-5.28 2.187s-3.879-0.787-5.28-2.187c-1.4-1.4-2.187-3.299-2.187-5.28s0.787-3.879 2.187-5.28c1.4-1.4 3.299-2.187 5.28-2.187zM16 30.933c0 0 14.933 0 14.933-3.733 0-4.48-7.28-9.333-14.933-9.333s-14.933 4.853-14.933 9.333c0 3.733 14.933 3.733 14.933 3.733z">
      </path>
    </symbol>
    <symbol id="circle-right" viewBox="0 0 32 32">
      <path
        d="M16 0c-8.837 0-16 7.163-16 16s7.163 16 16 16 16-7.163 16-16-7.163-16-16-16zM16 29c-7.18 0-13-5.82-13-13s5.82-13 13-13 13 5.82 13 13-5.82 13-13 13z">
      </path>
      <path d="M11.086 22.086l2.829 2.829 8.914-8.914-8.914-8.914-2.828 2.828 6.086 6.086z"></path>
    </symbol>
    <symbol id="circle-left" viewBox="0 0 32 32">
      <path
        d="M16 32c8.837 0 16-7.163 16-16s-7.163-16-16-16-16 7.163-16 16 7.163 16 16 16zM16 3c7.18 0 13 5.82 13 13s-5.82 13-13 13-13-5.82-13-13 5.82-13 13-13z">
      </path>
      <path d="M20.914 9.914l-2.829-2.829-8.914 8.914 8.914 8.914 2.828-2.828-6.086-6.086z"></path>
    </symbol>
    <symbol id="facebook" viewBox="0 0 32 32">
      <path d="M19 6h5v-6h-5c-3.86 0-7 3.14-7 7v3h-4v6h4v16h6v-16h5l1-6h-6v-3c0-0.542 0.458-1 1-1z"></path>
    </symbol>
    <symbol id="instagram" viewBox="0 0 32 32">
      <path
        d="M16 2.881c4.275 0 4.781 0.019 6.462 0.094 1.563 0.069 2.406 0.331 2.969 0.55 0.744 0.288 1.281 0.638 1.837 1.194 0.563 0.563 0.906 1.094 1.2 1.838 0.219 0.563 0.481 1.412 0.55 2.969 0.075 1.688 0.094 2.194 0.094 6.463s-0.019 4.781-0.094 6.463c-0.069 1.563-0.331 2.406-0.55 2.969-0.288 0.744-0.637 1.281-1.194 1.837-0.563 0.563-1.094 0.906-1.837 1.2-0.563 0.219-1.413 0.481-2.969 0.55-1.688 0.075-2.194 0.094-6.463 0.094s-4.781-0.019-6.463-0.094c-1.563-0.069-2.406-0.331-2.969-0.55-0.744-0.288-1.281-0.637-1.838-1.194-0.563-0.563-0.906-1.094-1.2-1.837-0.219-0.563-0.481-1.413-0.55-2.969-0.075-1.688-0.094-2.194-0.094-6.463s0.019-4.781 0.094-6.463c0.069-1.563 0.331-2.406 0.55-2.969 0.288-0.744 0.638-1.281 1.194-1.838 0.563-0.563 1.094-0.906 1.838-1.2 0.563-0.219 1.412-0.481 2.969-0.55 1.681-0.075 2.188-0.094 6.463-0.094zM16 0c-4.344 0-4.887 0.019-6.594 0.094-1.7 0.075-2.869 0.35-3.881 0.744-1.056 0.412-1.95 0.956-2.837 1.85-0.894 0.888-1.438 1.781-1.85 2.831-0.394 1.019-0.669 2.181-0.744 3.881-0.075 1.713-0.094 2.256-0.094 6.6s0.019 4.887 0.094 6.594c0.075 1.7 0.35 2.869 0.744 3.881 0.413 1.056 0.956 1.95 1.85 2.837 0.887 0.887 1.781 1.438 2.831 1.844 1.019 0.394 2.181 0.669 3.881 0.744 1.706 0.075 2.25 0.094 6.594 0.094s4.888-0.019 6.594-0.094c1.7-0.075 2.869-0.35 3.881-0.744 1.050-0.406 1.944-0.956 2.831-1.844s1.438-1.781 1.844-2.831c0.394-1.019 0.669-2.181 0.744-3.881 0.075-1.706 0.094-2.25 0.094-6.594s-0.019-4.887-0.094-6.594c-0.075-1.7-0.35-2.869-0.744-3.881-0.394-1.063-0.938-1.956-1.831-2.844-0.887-0.887-1.781-1.438-2.831-1.844-1.019-0.394-2.181-0.669-3.881-0.744-1.712-0.081-2.256-0.1-6.6-0.1v0z">
      </path>
      <path
        d="M16 7.781c-4.537 0-8.219 3.681-8.219 8.219s3.681 8.219 8.219 8.219 8.219-3.681 8.219-8.219c0-4.537-3.681-8.219-8.219-8.219zM16 21.331c-2.944 0-5.331-2.387-5.331-5.331s2.387-5.331 5.331-5.331c2.944 0 5.331 2.387 5.331 5.331s-2.387 5.331-5.331 5.331z">
      </path>
      <path
        d="M26.462 7.456c0 1.060-0.859 1.919-1.919 1.919s-1.919-0.859-1.919-1.919c0-1.060 0.859-1.919 1.919-1.919s1.919 0.859 1.919 1.919z">
      </path>
    </symbol>
    <symbol id="line-icon" viewBox="0 0 87 32">
      <path fill="none" stroke="#ef8964" style="stroke: var(--color1, #ef8964)" stroke-linejoin="round"
        stroke-linecap="round" stroke-miterlimit="4" stroke-width="1.7297"
        d="M60.717 0.865c-20.169 0.292-64.211 3.812-59.502 21.728 4.232 12.649 64.534 9.932 79.413 0.414s-5.555-19.422-34.037-15.916">
      </path>
    </symbol>
    <symbol id="checkbox-circle-fill-icon" viewBox="0 0 32 32">
      <path
        d="M16 29.333c-7.364 0-13.333-5.969-13.333-13.333s5.969-13.333 13.333-13.333 13.333 5.969 13.333 13.333c0 7.364-5.969 13.333-13.333 13.333zM14.459 21.98l9.427-9.428-1.885-1.885-7.541 7.543-3.772-3.772-1.885 1.885 5.657 5.657z">
      </path>
    </symbol>
    <symbol id="eye-off-icon" viewBox="0 0 32 32">
      <path fill="none" stroke="#efede8" style="stroke: var(--color1, #efede8)" stroke-linejoin="round"
        stroke-linecap="round" stroke-miterlimit="4" stroke-width="2.88"
        d="M23.92 23.92c-2.279 1.737-5.055 2.7-7.92 2.747-9.333 0-14.667-10.667-14.667-10.667 1.659-3.091 3.959-5.791 6.747-7.92M13.2 5.653c0.918-0.215 1.857-0.322 2.8-0.32 9.333 0 14.667 10.667 14.667 10.667-0.809 1.514-1.775 2.94-2.88 4.253M18.827 18.827c-0.366 0.393-0.808 0.708-1.299 0.927s-1.020 0.336-1.557 0.346c-0.537 0.009-1.071-0.089-1.569-0.291s-0.95-0.501-1.33-0.88c-0.38-0.38-0.679-0.832-0.88-1.33s-0.3-1.032-0.29-1.569c0.009-0.537 0.127-1.067 0.346-1.558s0.534-0.932 0.927-1.298">
      </path>
      <path fill="none" stroke="#efede8" style="stroke: var(--color1, #efede8)" stroke-linejoin="round"
        stroke-linecap="round" stroke-miterlimit="4" stroke-width="2.88" d="M1.333 1.333l29.333 29.333"></path>
    </symbol>
    <symbol id="eye-icon" viewBox="0 0 32 32">
      <path fill="none" stroke="#efede8" style="stroke: var(--color1, #efede8)" stroke-linejoin="round"
        stroke-linecap="round" stroke-miterlimit="4" stroke-width="2.88"
        d="M1.333 16c0 0 5.333-10.667 14.667-10.667s14.667 10.667 14.667 10.667-5.333 10.667-14.667 10.667c-9.333 0-14.667-10.667-14.667-10.667z">
      </path>
      <path fill="none" stroke="#efede8" style="stroke: var(--color1, #efede8)" stroke-linejoin="round"
        stroke-linecap="round" stroke-miterlimit="4" stroke-width="2.88"
        d="M16 20c2.209 0 4-1.791 4-4s-1.791-4-4-4c-2.209 0-4 1.791-4 4s1.791 4 4 4z"></path>
    </symbol>
    <symbol id="google-icon" xmlns="http://www.w3.org/2000/svg" viewBox="0 0 24 24">
      <path
        d="M22.56 12.25c0-.78-.07-1.53-.2-2.25H12v4.26h5.92c-.26 1.37-1.04 2.53-2.21 3.31v2.77h3.57c2.08-1.92 3.28-4.74 3.28-8.09z"
        fill="#4285F4" />
      <path
        d="M12 23c2.97 0 5.46-.98 7.28-2.66l-3.57-2.77c-.98.66-2.23 1.06-3.71 1.06-2.86 0-5.29-1.93-6.16-4.53H2.18v2.84C3.99 20.53 7.7 23 12 23z"
        fill="#34A853" />
      <path
        d="M5.84 14.09c-.22-.66-.35-1.36-.35-2.09s.13-1.43.35-2.09V7.07H2.18C1.43 8.55 1 10.22 1 12s.43 3.45 1.18 4.93l2.85-2.22.81-.62z"
        fill="#FBBC05" />
      <path
        d="M12 5.38c1.62 0 3.06.56 4.21 1.64l3.15-3.15C17.45 2.09 14.97 1 12 1 7.7 1 3.99 3.47 2.18 7.07l3.66 2.84c.87-2.6 3.3-4.53 6.16-4.53z"
        fill="#EA4335" />
      <path d="M1 1h22v22H1z" fill="none" />
    </symbol>
  </defs>
</svg>