<svg width="33" height="32" viewBox="0 0 33 32" fill="none" xmlns="http://www.w3.org/2000/svg">
<path d="M11.2382 0.427845L15.9284 1.78405C16.2674 1.88208 16.6272 1.88283 16.9666 1.78621L21.7966 0.411303C22.6418 0.170715 23.5409 0.546916 23.963 1.31768L26.4694 5.89504C26.6375 6.20214 26.888 6.45626 27.1927 6.62883L31.1787 8.88671C31.9497 9.32347 32.3117 10.2389 32.0479 11.0849L30.6672 15.513C30.554 15.876 30.5534 16.2648 30.6655 16.6282L32.06 21.1493C32.3177 21.9849 31.9661 22.8879 31.2113 23.3292L26.768 25.9266C26.4649 26.1039 26.2173 26.3624 26.0534 26.673L23.9399 30.6768C23.531 31.4515 22.6418 31.8417 21.7948 31.6181L16.9314 30.3344C16.6141 30.2507 16.2804 30.2513 15.9635 30.3363L11.2488 31.6004C10.3822 31.8328 9.47213 31.4213 9.07421 30.6172L6.96789 26.3608C6.79108 26.0035 6.50542 25.7116 6.15206 25.5271L1.84775 23.2796C1.06147 22.869 0.668508 21.9652 0.904481 21.1102L2.1597 16.562C2.24855 16.24 2.25014 15.9002 2.16431 15.5775L0.876636 10.735C0.655154 9.90215 1.02762 9.02522 1.7808 8.60629L6.20271 6.1468C6.52438 5.96789 6.78654 5.69859 6.95674 5.37222L9.04628 1.36568C9.4606 0.571256 10.3774 0.178965 11.2382 0.427845Z" fill="#E6533C"/>
<path d="M16.5 10.75V21.25" stroke="#EFEDE8" stroke-width="2" stroke-linecap="round" stroke-linejoin="round"/>
<path d="M11.25 16H21.75" stroke="#EFEDE8" stroke-width="2" stroke-linecap="round" stroke-linejoin="round"/>
</svg>
